<svg width="14" height="14" viewBox="0 0 14 14" fill="none" xmlns="http://www.w3.org/2000/svg">
<path d="M12.2502 6.91231C12.2502 5.49672 11.6874 4.13928 10.6864 3.13831C9.68547 2.13733 8.32803 1.57458 6.91243 1.57458C5.49684 1.57458 4.1394 2.13733 3.13843 3.13831C2.13745 4.13928 1.57471 5.49672 1.57471 6.91231C1.57471 7.61324 1.71321 8.30754 1.98145 8.95512C2.24968 9.60258 2.64287 10.1908 3.13843 10.6863C3.63399 11.1819 4.22216 11.5751 4.86963 11.8433C5.5172 12.1115 6.2115 12.25 6.91243 12.25L7.17505 12.2432C7.78626 12.2131 8.38866 12.078 8.95524 11.8433C9.60271 11.5751 10.1909 11.1819 10.6864 10.6863C11.182 10.1908 11.5752 9.60258 11.8434 8.95512C12.1117 8.30754 12.2502 7.61324 12.2502 6.91231ZM6.41683 9.50484V5.51607L4.67025 7.26265L3.96899 6.56197L6.56209 3.96887L6.59969 3.93526C6.79435 3.77652 7.08124 3.78759 7.26278 3.96887L9.85588 6.56197C10.0492 6.75554 10.0492 7.06908 9.85588 7.26265C9.66224 7.45629 9.34826 7.45629 9.15462 7.26265L7.40804 5.51607V9.50484C7.40804 9.77868 7.18628 10.001 6.91243 10.001C6.63859 10.001 6.41683 9.77868 6.41683 9.50484ZM4.67025 7.26265C4.47661 7.45629 4.16263 7.45629 3.96899 7.26265C3.7757 7.06908 3.7757 6.75554 3.96899 6.56197L4.67025 7.26265ZM13.2414 6.91231C13.2414 7.74347 13.0781 8.56662 12.76 9.33451C12.4419 10.1024 11.9754 10.7999 11.3877 11.3876C10.8 11.9753 10.1025 12.4418 9.33463 12.7599C8.66268 13.0382 7.94837 13.1982 7.22347 13.2338L6.91243 13.2413C6.08128 13.2413 5.25812 13.078 4.49023 12.7599C3.72236 12.4418 3.02488 11.9753 2.43717 11.3876C1.84947 10.7999 1.38293 10.1024 1.06486 9.33451C0.74679 8.56662 0.583496 7.74347 0.583496 6.91231C0.583496 5.23371 1.25023 3.624 2.43717 2.43705C3.62412 1.2501 5.23384 0.583374 6.91243 0.583374L7.22632 0.59078C8.79064 0.668393 10.2749 1.3243 11.3877 2.43705C12.5746 3.624 13.2414 5.23371 13.2414 6.91231Z" fill="#0C6AE8"/>
</svg>
