<svg viewBox="0 0 128 128" fill="none" xmlns="http://www.w3.org/2000/svg">
<path d="M0 21.33C0 9.54977 9.54977 0 21.33 0H106.67C118.45 0 128 9.54977 128 21.33V106.67C128 118.45 118.45 128 106.67 128H21.33C9.54977 128 0 118.45 0 106.67V21.33Z" fill="#E03231"/>
<path d="M61.7925 26.8352C63.053 25.7216 64.946 25.7217 66.2066 26.8352C74.5676 34.2219 85.4816 38.0685 96.6353 37.5588L96.9204 37.5578C98.3372 37.6137 99.5782 38.5664 99.9849 39.9465C102.214 47.5135 102.578 55.423 101.156 63.0256C100.817 64.835 99.0756 66.0281 97.2661 65.6897C95.4567 65.3511 94.2636 63.6095 94.6021 61.8C95.6814 56.0319 95.5727 50.0612 94.23 44.2658C83.2563 44.1687 72.6238 40.439 63.9995 33.6653C55.3761 40.4382 44.7454 44.1681 33.773 44.2658C32.6688 49.0349 32.3867 53.9633 32.9497 58.8381C33.6091 64.5476 35.4108 70.0669 38.2486 75.0676C41.0864 80.0685 44.903 84.4497 49.4702 87.9494C54.0373 91.449 59.2626 93.9962 64.8355 95.4397C66.6175 95.9012 67.6885 97.7201 67.2271 99.5022C66.7655 101.284 64.9466 102.355 63.1646 101.894C56.7277 100.227 50.6917 97.2833 45.4155 93.2404C40.1394 89.1975 35.7299 84.1371 32.4507 78.3586C29.1715 72.58 27.0888 66.2014 26.3267 59.6028C25.5646 53.0042 26.1392 46.32 28.0152 39.9475L28.1069 39.677C28.6217 38.3557 29.9273 37.4931 31.3648 37.5588C42.5183 38.0685 53.4315 34.2218 61.7925 26.8352Z" fill="white"/>
<path d="M64.9245 70.8324C64.331 71.3968 63.9976 72.1624 63.9976 72.9606V81.9896C63.9976 82.7878 64.331 83.5533 64.9245 84.1177C65.5181 84.6821 66.323 84.9992 67.1624 84.9992H84.8327C85.6721 84.9992 86.4771 84.6821 87.0706 84.1177C87.6641 83.5533 87.9976 82.7878 87.9976 81.9896V72.9606C87.9976 72.1624 87.6641 71.3968 87.0706 70.8324C86.4771 70.268 85.6721 69.9509 84.8327 69.9509H82.3272H69.6679H67.1624C66.323 69.9509 65.5181 70.268 64.9245 70.8324Z" fill="#E03231"/>
<path d="M85.5972 72.9602C85.5971 72.8386 85.5475 72.6961 85.4165 72.5715C85.2813 72.443 85.0731 72.3508 84.8325 72.3508H67.1626C66.922 72.3508 66.7139 72.443 66.5786 72.5715C66.4476 72.6961 66.3981 72.8386 66.398 72.9602V81.9895C66.398 82.1111 66.4476 82.2535 66.5786 82.3781C66.7139 82.5068 66.9219 82.5988 67.1626 82.5988H84.8325C85.0732 82.5988 85.2813 82.5068 85.4165 82.3781C85.5476 82.2535 85.5972 82.1111 85.5972 81.9895V72.9602ZM79.9273 63.0188C79.9273 62.0989 79.5444 61.1903 78.8198 60.5012C78.0911 59.8082 77.0776 59.3996 75.9976 59.3996C74.9175 59.3996 73.9041 59.8082 73.1753 60.5012C72.4507 61.1903 72.0679 62.0989 72.0679 63.0188V67.551H79.9273V63.0188ZM84.7271 67.551H84.8325L85.1021 67.5569C86.4446 67.6201 87.7382 68.1555 88.7241 69.093C89.7799 70.097 90.3979 71.4855 90.398 72.9602V81.9895C90.398 83.4642 89.78 84.8525 88.7241 85.8567C87.6723 86.8568 86.2705 87.3996 84.8325 87.3996H67.1626C65.7246 87.3996 64.3228 86.8568 63.271 85.8567C62.2151 84.8525 61.5972 83.4642 61.5972 81.9895V72.9602C61.5973 71.4855 62.2152 70.097 63.271 69.093C64.257 68.1555 65.5505 67.6201 66.8931 67.5569L67.1626 67.551H67.2681V63.0188C67.2681 60.7458 68.2183 58.5912 69.8677 57.0227C71.513 55.4581 73.7202 54.5988 75.9976 54.5988C78.2749 54.5988 80.4821 55.4581 82.1275 57.0227C83.7769 58.5912 84.7271 60.7458 84.7271 63.0188V67.551Z" fill="white"/>
</svg>
